<svg xmlns="http://www.w3.org/2000/svg" viewBox="0 0 32 32">
  <defs>
    <radialGradient id="ieGlobe" cx="50%" cy="50%" r="50%">
      <stop offset="0%" stop-color="#89eafe"/>
      <stop offset="40%" stop-color="#5bc0ea"/>
      <stop offset="80%" stop-color="#1f8ad4"/>
      <stop offset="100%" stop-color="#0d6bb8"/>
    </radialGradient>
  </defs>
  <!-- Globe background -->
  <circle cx="16" cy="16" r="15" fill="url(#ieGlobe)" stroke="#2064a9" stroke-width="0.5"/>
  <!-- The "e" cutout (stylized lowercase e in white) -->
  <path d="M22 14.5c0-3.3-2.7-6-6-6s-6 2.7-6 6 2.7 6 6 6c1.8 0 3.4-0.8 4.5-2h-3.3c-0.6 0.6-1.5 1-2.5 1-1.8 0-3.2-1.2-3.5-2.8h9.7v-1.7h-9.7c0-0.2 0-0.3 0-0.5 0-3 2.5-5.5 5.5-5.5 1.7 0 3.2 0.7 4.2 1.9 0.4 0.4 0.6 1 0.6 1.6h-4.3v2h5.8c0 0.3 0 0.5 0 0.8 0 0.5-0.1 1-0.3 1.4z" fill="#fff"/>
  <!-- Orbit arc (golden) -->
  <path d="M4 8c2-3 5.5-5 9.5-5 4 0 7.5 2 9.5 5" fill="none" stroke="#ffb700" stroke-width="1.5" stroke-linecap="round"/>
  <path d="M28 24c-2 3-5.5 5-9.5 5-4 0-7.5-2-9.5-5" fill="none" stroke="#ffb700" stroke-width="1.5" stroke-linecap="round"/>
</svg>
